<svg xmlns="http://www.w3.org/2000/svg" viewBox="0 0 47.365 52.592"><path d="M4.788 42.223L.581 44.105a.414.414 0 01-.564-.497l1.738-5.681a.414.414 0 01.28-.308l8.89-2.818V19.485c0-.114.046-.218.122-.293L28.24.137a.413.413 0 01.72.277h.001v20.17l10.777-9.091a.413.413 0 01.68.415l-7.714 27.046 14.328 2.866a.414.414 0 01.044.8l-17.95 5.697a.465.465 0 01-.092.019l-6.037.48-10.112 3.75a.413.413 0 01-.476-.141L4.788 42.222z"/><path fill="#fff" d="M35.946 45.284l9.348-2.968-12.818-2.564-.865 3.035zM30.22 42.938l-.704 4.388 5.364-1.703zM15.537 34.483l7.6 13.491 5.509-.438.807-5.038-13.916-8.014zM13.923 35.198l.101-1.84a.408.408 0 01.146-.299l13.963-11.778V1.49l-16.38 18.153v15.122l2.17.434zM14.772 34.811l-.624 11.286 7.946 1.713-7.322-12.998z"/><path fill="#fff" d="M12.623 51.329l1.671-4.354-.663-.143a.413.413 0 01-.326-.427l.572-10.372-2.514-.502-8.522 2.701zM15.113 47.15l-1.658 4.32 7.976-2.957z"/><path fill="#f1f1f1" d="M2.317 38.914L1.073 42.98l3.208-1.435z"/><path d="M16.806 35.938a.155.155 0 11.154-.269l11.152 6.385a.155.155 0 11-.154.27zM32.615 40.192a.154.154 0 11.297.086l-.603 2.082a.154.154 0 11-.297-.086zM30.349 43.808a.155.155 0 01.306.048l-.451 2.904a.155.155 0 01-.307-.047zM15.616 47.82a.156.156 0 01.07-.303l3.836.877a.156.156 0 01-.07.303zM2.294 39.925a.154.154 0 11.296.086l-.603 2.083a.154.154 0 11-.297-.086zM33.05 40.73a.154.154 0 11.297.086l-.603 2.083a.154.154 0 11-.297-.087z"/><path fill="#fff" d="M30.872 42.362l8.38-29.378-24.098 20.327 15.718 9.052z"/></svg>